<?xml version="1.0" encoding="UTF-8"?><svg id="Ebene_1" xmlns="http://www.w3.org/2000/svg" width="93.37mm" height="38.467mm" viewBox="0 0 264.67 109.041"><path id="Fill-3" d="M70.83,36.347v29.823h-7.456v-29.823h-27.027v6.524h6.524v29.823h6.524v-29.823h7.456v29.823h20.503v-29.823h7.456v29.823h6.524v-29.823h7.456v29.823h6.524v-36.346h-34.482" fill="#072140" fill-rule="evenodd"/><path d="M143.288,45.294c0,1.687-.455,2.961-1.367,3.822-.91.862-2.197,1.293-3.859,1.293-.855,0-1.621-.1-2.297-.298s-1.246-.508-1.711-.93-.822-.955-1.069-1.6c-.249-.645-.372-1.407-.372-2.288v-8.481h1.768v8.481c0,1.179.318,2.077.957,2.697s1.547.93,2.725.93c1.129,0,1.988-.31,2.576-.93.59-.62.885-1.519.885-2.697v-8.481h1.766v8.481h-.002Z" fill="#072140"/><path d="M145.854,40.477h1.488v1.525h.037c.336-.595.766-1.035,1.293-1.32s1.137-.428,1.832-.428c.633,0,1.16.087,1.582.26.42.174.762.416,1.021.726.262.311.443.679.549,1.106s.158.902.158,1.423v6.324h-1.58v-6.51c0-.595-.174-1.066-.521-1.414-.348-.347-.824-.521-1.432-.521-.484,0-.902.074-1.256.224-.354.148-.648.359-.883.632-.236.273-.414.593-.531.958-.117.366-.176.766-.176,1.2v5.431h-1.582v-9.616h0Z" fill="#072140"/><path d="M157.852,38.747h-1.582v-1.935h1.582v1.935ZM156.27,40.477h1.582v9.616h-1.582s0-9.616,0-9.616Z" fill="#072140"/><path d="M164.604,50.093h-1.693l-3.57-9.616h1.766l2.697,8.017h.037l2.623-8.017h1.656l-3.516,9.616h0Z" fill="#072140"/><path d="M177.735,47.043c-.211,1.066-.678,1.878-1.398,2.437-.721.558-1.627.837-2.721.837-.771,0-1.439-.128-2.004-.382-.566-.254-1.041-.604-1.426-1.051s-.674-.979-.867-1.6-.301-1.295-.326-2.027c0-.719.111-1.386.336-1.999.223-.614.535-1.145.938-1.591.404-.446.881-.793,1.434-1.041.551-.248,1.156-.372,1.812-.372.855,0,1.566.177,2.131.53.562.353,1.016.803,1.357,1.348.34.546.576,1.142.707,1.786.129.645.182,1.259.158,1.841h-7.199c-.012.422.037.822.148,1.2s.291.713.541,1.004c.246.292.562.524.947.698s.838.26,1.357.26c.658,0,1.203-.154,1.637-.465.436-.31.721-.781.857-1.413h1.581ZM176.192,44.364c-.025-.372-.109-.726-.252-1.061s-.334-.623-.576-.864c-.242-.242-.531-.435-.865-.577s-.695-.214-1.078-.214c-.41,0-.779.071-1.107.214s-.611.338-.846.586c-.236.248-.422.537-.559.865s-.217.679-.242,1.051h5.525Z" fill="#072140"/><path d="M179.428,40.477h1.488v2.027h.037c.383-.781.855-1.357,1.412-1.729.559-.372,1.266-.546,2.121-.521v1.674c-.633,0-1.172.087-1.619.261-.445.173-.805.428-1.078.762-.273.335-.471.744-.596,1.228-.123.484-.186,1.03-.186,1.638v4.277h-1.58v-9.616h0Z" fill="#072140"/><path d="M186.68,47.062c.014.359.094.657.242.893s.344.425.586.567.516.245.818.307c.305.062.617.093.939.093.248,0,.508-.019.781-.056s.523-.105.754-.204c.229-.1.418-.245.566-.438s.225-.438.225-.734c0-.31-.092-.562-.271-.754-.18-.191-.414-.35-.705-.474-.293-.124-.627-.227-1.006-.308-.377-.08-.766-.164-1.162-.251-.396-.086-.781-.191-1.152-.315-.373-.124-.707-.285-1.006-.484-.297-.198-.535-.452-.715-.763-.18-.31-.27-.694-.27-1.152,0-.484.107-.899.324-1.247.217-.347.496-.629.838-.846.34-.217.725-.378,1.152-.483s.854-.158,1.275-.158c.533,0,1.031.046,1.496.14.465.093.875.254,1.229.483s.635.539.846.93.336.878.373,1.46h-1.582c-.025-.31-.109-.567-.25-.771-.143-.205-.316-.369-.521-.493s-.434-.214-.688-.27c-.256-.056-.512-.084-.773-.084-.234,0-.473.02-.715.057s-.463.103-.66.196c-.199.094-.361.222-.484.384s-.186.362-.186.6c0,.287.096.518.287.692.193.175.438.321.736.44.297.118.631.218,1.004.299.371.082.744.165,1.115.252.396.087.785.191,1.162.315.379.124.713.287,1.006.491.291.204.525.46.707.77.18.309.27.692.27,1.149,0,.568-.121,1.048-.363,1.438-.242.389-.559.701-.949.936-.391.235-.83.402-1.32.501s-.977.148-1.459.148c-.547,0-1.059-.06-1.535-.177-.479-.118-.902-.304-1.273-.559-.373-.254-.67-.588-.895-1.004-.223-.415-.346-.921-.371-1.516h1.58Z" fill="#072140"/><path d="M196.632,38.747h-1.58v-1.935h1.58v1.935ZM195.052,40.477h1.58v9.616h-1.58s0-9.616,0-9.616Z" fill="#072140"/><path d="M201.245,40.477h1.916v1.396h-1.916v5.971c0,.186.016.334.047.446.031.111.09.198.176.26.088.062.207.103.363.121.154.019.355.028.604.028h.727v1.395h-1.209c-.41,0-.76-.027-1.051-.083-.291-.057-.527-.158-.707-.308-.18-.148-.312-.359-.4-.632-.086-.272-.129-.633-.129-1.079v-6.119h-1.639v-1.396h1.639v-2.883h1.58v2.883h-.001Z" fill="#072140"/><path d="M213.446,50.056c-.285.174-.664.261-1.135.261-.41,0-.734-.118-.977-.354s-.363-.614-.363-1.135c-.434.521-.939.899-1.516,1.135s-1.199.354-1.869.354c-.434,0-.846-.05-1.236-.149-.391-.099-.729-.257-1.014-.474s-.512-.496-.68-.837-.25-.754-.25-1.237c0-.546.092-.992.277-1.339.188-.348.432-.626.736-.837.303-.211.65-.375,1.041-.493s.791-.214,1.199-.288c.434-.087.846-.152,1.236-.195.391-.044.736-.105,1.033-.187.297-.08.533-.198.707-.354.174-.154.26-.381.26-.679,0-.347-.064-.626-.195-.837-.129-.211-.297-.372-.502-.483s-.434-.187-.688-.224-.506-.056-.754-.056c-.67,0-1.229.128-1.674.382-.447.254-.688.734-.725,1.441h-1.582c.025-.596.148-1.098.373-1.507.223-.409.52-.741.893-.995.371-.254.799-.438,1.283-.549.482-.111.992-.167,1.525-.167.434,0,.863.031,1.291.093.43.062.816.189,1.164.381.346.192.625.463.836.81.211.348.316.8.316,1.357v4.948c0,.372.021.645.064.818.045.174.189.26.438.26.148,0,.311-.03.484-.093v1.228h.004ZM210.88,45.127c-.15.111-.336.198-.559.261-.223.062-.459.114-.707.157-.248.044-.512.081-.791.112s-.549.071-.809.12c-.26.05-.508.112-.744.187s-.439.177-.613.307c-.174.131-.314.295-.418.493-.105.198-.158.446-.158.744,0,.26.053.48.158.66.104.18.24.325.408.438.168.111.363.192.586.241.223.05.459.074.707.074.521,0,.967-.071,1.34-.214.371-.143.676-.322.91-.539.236-.217.41-.452.521-.707.111-.254.168-.493.168-.716v-1.618h.001ZM206.21,36.961h1.674v1.935h-1.674v-1.935ZM209.708,36.961h1.674v1.935h-1.674v-1.935Z" fill="#072140"/><path d="M217.091,40.477h1.916v1.396h-1.916v5.971c0,.186.016.334.047.446.031.111.09.198.178.26.086.062.207.103.361.121.156.019.357.028.605.028h.725v1.395h-1.209c-.408,0-.76-.027-1.051-.083-.291-.057-.527-.158-.707-.308-.18-.148-.312-.359-.398-.632-.088-.272-.131-.633-.131-1.079v-6.119h-1.637v-1.396h1.637v-2.883h1.58v2.883Z" fill="#072140"/><path d="M221.741,47.062c.012.359.094.657.242.893s.344.425.586.567.514.245.818.307c.303.062.615.093.939.093.248,0,.508-.019.781-.056.271-.037.523-.105.752-.204.23-.1.42-.245.568-.438s.223-.438.223-.734c0-.31-.09-.562-.27-.754-.18-.191-.416-.35-.707-.474s-.627-.227-1.004-.308c-.379-.08-.766-.164-1.162-.251-.398-.086-.781-.191-1.154-.315-.371-.124-.707-.285-1.004-.484-.297-.198-.537-.452-.717-.763-.18-.31-.27-.694-.27-1.152,0-.484.109-.899.326-1.247.217-.347.496-.629.836-.846.342-.217.727-.378,1.154-.483s.852-.158,1.273-.158c.533,0,1.033.046,1.498.14.465.093.873.254,1.227.483s.637.539.848.93.334.878.371,1.46h-1.58c-.025-.31-.109-.567-.252-.771-.143-.205-.316-.369-.521-.493-.203-.124-.434-.214-.688-.27s-.512-.084-.771-.084c-.236,0-.475.02-.717.057s-.461.103-.66.196c-.197.094-.359.222-.482.384-.125.162-.188.362-.188.6,0,.287.096.518.289.692.191.175.438.321.734.44.297.118.633.218,1.004.299.373.082.744.165,1.117.252.396.087.783.191,1.162.315s.713.287,1.004.491.527.46.707.77c.18.309.27.692.27,1.149,0,.568-.121,1.048-.363,1.438-.24.389-.557.701-.947.936-.391.235-.832.402-1.32.501-.49.099-.977.148-1.461.148-.545,0-1.057-.06-1.535-.177-.477-.118-.9-.304-1.273-.559-.371-.254-.67-.588-.893-1.004-.223-.415-.348-.921-.373-1.516h1.583Z" fill="#072140"/><path d="M132.686,59.141h1.768v6.621l6.732-6.621h2.289l-5.6,5.356,5.822,7.924h-2.232l-4.799-6.715-2.213,2.064v4.65h-1.768v-13.28h0Z" fill="#072140"/><path d="M144.887,59.141h1.582v13.28h-1.582v-13.28Z" fill="#072140"/><path d="M150.561,61.075h-1.582v-1.935h1.582v1.935ZM148.979,62.805h1.582v9.616h-1.582v-9.616Z" fill="#072140"/><path d="M152.979,62.805h1.488v1.525h.037c.334-.596.766-1.035,1.291-1.32.527-.285,1.139-.429,1.834-.429.631,0,1.158.087,1.58.261s.762.416,1.023.726c.26.31.443.679.549,1.106s.158.902.158,1.423v6.324h-1.582v-6.51c0-.596-.174-1.066-.52-1.414-.348-.347-.826-.521-1.434-.521-.482,0-.902.074-1.256.223s-.646.36-.883.633c-.236.273-.412.593-.529.958-.119.366-.178.766-.178,1.199v5.432h-1.58v-9.616h.002Z" fill="#072140"/><path d="M164.975,61.075h-1.582v-1.935h1.582v1.935ZM163.393,62.805h1.582v9.616h-1.582v-9.616Z" fill="#072140"/><path d="M167.485,59.141h1.582v7.867l4.389-4.203h2.121l-3.812,3.497,4.092,6.119h-2.01l-3.291-5.022-1.488,1.377v3.646h-1.582v-13.28h-.001Z" fill="#072140"/><path d="M184.969,72.421h-1.488v-1.525h-.037c-.334.596-.766,1.036-1.293,1.32-.527.285-1.137.429-1.832.429-.631,0-1.158-.087-1.58-.261s-.764-.415-1.023-.726c-.26-.31-.443-.679-.549-1.106s-.158-.902-.158-1.423v-6.324h1.582v6.51c0,.596.174,1.066.52,1.414.348.347.826.521,1.434.521.482,0,.902-.074,1.254-.223.354-.149.648-.36.885-.633.234-.272.412-.592.529-.958.117-.365.178-.766.178-1.199v-5.432h1.58v9.616h-.002Z" fill="#072140"/><path d="M187.333,62.805h1.488v1.414h.037c.719-1.092,1.754-1.638,3.105-1.638.596,0,1.135.125,1.619.372.482.249.824.67,1.021,1.266.322-.521.75-.924,1.283-1.209s1.111-.429,1.73-.429c.484,0,.92.054,1.311.158.391.105.727.271,1.006.493.279.224.496.512.65.865s.232.778.232,1.273v7.05h-1.58v-6.306c0-.297-.025-.576-.076-.837-.049-.26-.143-.486-.277-.679-.137-.192-.326-.344-.568-.456-.242-.111-.555-.167-.939-.167-.768,0-1.379.223-1.832.67-.453.446-.678,1.041-.678,1.785v5.989h-1.582v-6.306c0-.31-.027-.595-.084-.855-.055-.261-.152-.486-.287-.679-.137-.192-.322-.341-.559-.446s-.527-.158-.875-.158c-.471,0-.867.093-1.189.279-.322.186-.586.409-.791.669-.205.261-.354.53-.445.81-.094.279-.141.512-.141.697v5.989h-1.58v-9.616.002Z" fill="#072140"/><polygon points="116.721 32.721 122.001 32.721 122.001 76.161 116.721 76.161 116.721 32.721 116.721 32.721" fill="#4e85e9" fill-rule="evenodd"/></svg>